<?xml version="1.0" encoding="UTF-8" standalone="no"?>
<!DOCTYPE svg PUBLIC "-//W3C//DTD SVG 1.1//EN" "http://www.w3.org/Graphics/SVG/1.1/DTD/svg11.dtd">
<svg width="100%" height="100%" viewBox="0 0 1000 800" version="1.1" xmlns="http://www.w3.org/2000/svg" xmlns:xlink="http://www.w3.org/1999/xlink" xml:space="preserve" xmlns:serif="http://www.serif.com/" style="fill-rule:evenodd;clip-rule:evenodd;stroke-linejoin:round;stroke-miterlimit:2;">
    <path id="Name" d="M817.137,468.606C828.691,468.606 838.936,470.904 847.872,475.5C856.809,480.096 863.804,485.818 868.859,492.667L868.859,471.039L900,471.039L900,622.431C900,636.128 897.112,648.339 891.335,659.062C885.558,669.786 877.208,678.211 866.286,684.339C855.364,690.467 842.321,693.531 827.157,693.531C806.937,693.531 790.148,688.8 776.789,679.338C763.43,669.876 755.848,657.035 754.043,640.814L784.642,640.814C786.989,648.564 791.999,654.827 799.671,659.603C807.344,664.379 816.505,666.767 827.157,666.767C839.613,666.767 849.678,662.982 857.35,655.412C865.023,647.843 868.859,636.849 868.859,622.431L868.859,597.559C863.623,604.588 856.538,610.491 847.602,615.267C838.665,620.043 828.511,622.431 817.137,622.431C804.139,622.431 792.27,619.142 781.528,612.563C770.787,605.985 762.302,596.793 756.074,584.988C749.845,573.183 746.731,559.802 746.731,544.843C746.731,529.884 749.845,516.637 756.074,505.102C762.302,493.568 770.787,484.601 781.528,478.203C792.27,471.805 804.139,468.606 817.137,468.606ZM372.398,544.843C372.398,529.884 375.513,516.637 381.741,505.102C387.969,493.568 396.454,484.601 407.195,478.203C417.937,471.805 429.807,468.606 442.805,468.606C454.539,468.606 464.784,470.904 473.54,475.5C482.295,480.096 489.291,485.818 494.526,492.667L494.526,471.039L525.667,471.039L525.667,619.998L494.526,619.998L494.526,597.83C489.291,604.859 482.16,610.716 473.133,615.402C464.107,620.088 453.817,622.431 442.263,622.431C429.445,622.431 417.711,619.142 407.06,612.563C396.409,605.985 387.969,596.793 381.741,584.988C375.513,573.183 372.398,559.802 372.398,544.843ZM360.232,432.11L304.449,619.998L269.516,619.998L229.981,477.798L188.008,619.998L153.346,620.268L100,432.11L132.766,432.11L171.76,585.124L214.004,432.11L248.665,432.11L287.93,584.313L327.195,432.11L360.232,432.11ZM656.557,468.606C668.291,468.606 678.807,471.039 688.104,475.905C697.402,480.772 704.668,487.981 709.903,497.533C715.139,507.085 717.756,518.619 717.756,532.137L717.756,619.998L687.157,619.998L687.157,536.732C687.157,523.395 683.817,513.168 677.137,506.049C670.458,498.93 661.341,495.37 649.787,495.37C638.233,495.37 629.072,498.93 622.302,506.049C615.532,513.168 612.147,523.395 612.147,536.732L612.147,619.998L581.277,619.998L581.277,471.039L612.147,471.039L612.147,488.071C617.202,481.943 623.656,477.167 631.509,473.743C639.362,470.318 647.711,468.606 656.557,468.606ZM494.526,545.383C494.526,535.11 492.405,526.189 488.162,518.619C483.92,511.05 478.369,505.283 471.509,501.318C464.649,497.353 457.247,495.37 449.304,495.37C441.36,495.37 433.959,497.307 427.099,501.182C420.238,505.057 414.687,510.734 410.445,518.214C406.202,525.693 404.081,534.57 404.081,544.843C404.081,555.116 406.202,564.127 410.445,571.877C414.687,579.627 420.284,585.529 427.234,589.584C434.184,593.639 441.541,595.667 449.304,595.667C457.247,595.667 464.649,593.684 471.509,589.719C478.369,585.754 483.92,579.942 488.162,572.282C492.405,564.623 494.526,555.656 494.526,545.383ZM868.859,545.383C868.859,535.11 866.738,526.189 862.495,518.619C858.253,511.05 852.701,505.283 845.841,501.318C838.981,497.353 831.58,495.37 823.636,495.37C815.693,495.37 808.291,497.307 801.431,501.182C794.571,505.057 789.02,510.734 784.778,518.214C780.535,525.693 778.414,534.57 778.414,544.843C778.414,555.116 780.535,564.127 784.778,571.877C789.02,579.627 794.616,585.529 801.567,589.584C808.517,593.639 815.874,595.667 823.636,595.667C831.58,595.667 838.981,593.684 845.841,589.719C852.701,585.754 858.253,579.942 862.495,572.282C866.738,564.623 868.859,555.656 868.859,545.383ZM720.056,173.663L628.528,392.64L596.575,392.64L626.903,320.188L568.141,173.663L602.532,173.663L644.505,287.207L688.103,173.663L720.056,173.663ZM372.373,247.466C372.373,232.508 375.487,219.261 381.715,207.726C387.943,196.192 396.428,187.225 407.17,180.827C417.911,174.429 429.781,171.23 442.779,171.23C454.513,171.23 464.758,173.528 473.514,178.124C482.27,182.72 489.265,188.442 494.5,195.29L494.5,173.663L525.642,173.663L525.642,322.622L494.5,322.622L494.5,300.453C489.265,307.482 482.134,313.34 473.108,318.026C464.081,322.712 453.791,325.055 442.237,325.055C429.42,325.055 417.685,321.765 407.034,315.187C396.383,308.609 387.943,299.417 381.715,287.612C375.487,275.807 372.373,262.425 372.373,247.466ZM342.044,134.734L342.044,322.622L311.174,322.622L311.174,193.939L253.765,322.622L232.373,322.622L174.694,193.939L174.694,322.622L143.823,322.622L143.823,134.734L177.131,134.734L243.204,282.07L309.007,134.734L342.044,134.734ZM494.5,248.007C494.5,237.734 492.379,228.813 488.137,221.243C483.894,213.674 478.343,207.906 471.483,203.941C464.623,199.976 457.221,197.994 449.278,197.994C441.335,197.994 433.933,199.931 427.073,203.806C420.213,207.681 414.662,213.358 410.419,220.838C406.177,228.317 404.056,237.193 404.056,247.466C404.056,257.739 406.177,266.751 410.419,274.501C414.662,282.25 420.258,288.153 427.208,292.208C434.159,296.263 441.515,298.291 449.278,298.291C457.221,298.291 464.623,296.308 471.483,292.343C478.343,288.378 483.894,282.566 488.137,274.906C492.379,267.246 494.5,258.28 494.5,248.007Z" style="fill-rule:nonzero;"/>
    <path id="Angle" d="M145.683,401.127L144.639,396.66L128.345,406.656L126.038,397.605L121.68,398.712L129.811,430.62L134.169,429.513L128.691,408.016L147.705,409.776L146.706,405.501C159.598,402.895 172.708,400.888 186.004,399.508L185.539,395.043C172.054,396.442 158.758,398.48 145.683,401.127ZM313.267,405.794L312.253,410.066L330.991,408.398L325.766,428.652L330.121,429.771L338.346,397.888L333.991,396.768L331.386,406.867L315.366,396.96L314.305,401.424C301.065,398.694 287.596,396.589 273.932,395.141L273.457,399.605C286.929,401.033 300.21,403.107 313.267,405.794ZM192.947,401.935L196.033,400.174C196.548,401.262 197.224,402.123 198.061,402.759C198.897,403.395 199.985,403.668 201.323,403.577C202.047,403.528 202.675,403.37 203.208,403.103C203.74,402.835 204.185,402.492 204.542,402.071C204.899,401.651 205.154,401.183 205.306,400.666C205.458,400.15 205.515,399.618 205.478,399.071C205.386,397.713 204.784,396.648 203.674,395.877C202.563,395.105 201.01,394.787 199.014,394.923L198.808,391.901C200.446,391.68 201.621,391.226 202.335,390.539C203.048,389.853 203.371,389.017 203.304,388.031C203.247,387.199 202.909,386.518 202.289,385.988C201.669,385.458 200.854,385.228 199.845,385.296C198.946,385.358 198.18,385.674 197.546,386.245C196.913,386.816 196.41,387.598 196.037,388.591L192.815,387.391C193.369,385.813 194.241,384.55 195.432,383.6C196.624,382.65 198.064,382.117 199.753,382.003C200.784,381.933 201.722,382.034 202.567,382.306C203.412,382.579 204.144,382.969 204.762,383.477C205.381,383.985 205.869,384.596 206.226,385.308C206.583,386.021 206.79,386.794 206.846,387.626C206.923,388.743 206.699,389.748 206.176,390.641C205.653,391.535 204.86,392.271 203.798,392.849C205.346,393.25 206.551,393.954 207.413,394.963C208.275,395.971 208.757,397.231 208.86,398.742C208.929,399.749 208.824,400.713 208.545,401.634C208.266,402.555 207.816,403.383 207.194,404.119C206.572,404.854 205.776,405.458 204.805,405.931C203.835,406.404 202.681,406.686 201.343,406.777C199.325,406.914 197.618,406.524 196.222,405.607C194.826,404.69 193.735,403.466 192.947,401.935ZM237.958,398.599C238.015,397.173 238.394,395.969 239.093,394.987C239.793,394.004 240.75,393.186 241.964,392.531C240.238,391.144 239.415,389.453 239.495,387.457C239.53,386.58 239.728,385.758 240.089,384.993C240.45,384.228 240.949,383.572 241.587,383.027C242.225,382.481 242.985,382.056 243.866,381.75C244.748,381.445 245.727,381.314 246.803,381.357C247.879,381.4 248.845,381.615 249.698,382C250.552,382.386 251.275,382.882 251.866,383.487C252.458,384.093 252.903,384.792 253.201,385.584C253.5,386.376 253.632,387.199 253.597,388.054C253.556,389.085 253.283,389.981 252.78,390.74C252.276,391.5 251.571,392.213 250.664,392.88C251.781,393.561 252.664,394.442 253.314,395.523C253.963,396.603 254.26,397.845 254.204,399.249C254.165,400.214 253.958,401.128 253.582,401.992C253.206,402.856 252.67,403.603 251.974,404.234C251.277,404.865 250.416,405.358 249.389,405.712C248.363,406.067 247.18,406.217 245.84,406.163C244.544,406.111 243.392,405.884 242.385,405.481C241.378,405.079 240.541,404.545 239.875,403.882C239.208,403.218 238.712,402.435 238.385,401.532C238.058,400.629 237.916,399.651 237.958,398.599ZM230.242,403.423C230.247,402.786 230.477,402.25 230.931,401.815C231.385,401.379 231.92,401.164 232.536,401.169C233.173,401.174 233.71,401.397 234.146,401.84C234.583,402.282 234.798,402.822 234.793,403.458C234.788,404.095 234.564,404.631 234.121,405.066C233.678,405.502 233.138,405.717 232.5,405.712C231.863,405.707 231.326,405.478 230.889,405.025C230.453,404.571 230.238,404.037 230.242,403.423ZM210.901,405.566L210.903,404.347L218.837,395.687C220.185,394.205 221.236,392.878 221.987,391.707C222.739,390.535 223.101,389.39 223.073,388.271C223.059,387.701 222.942,387.176 222.721,386.699C222.5,386.221 222.204,385.8 221.832,385.436C221.46,385.072 221.019,384.792 220.508,384.596C219.997,384.4 219.456,384.31 218.885,384.324C216.511,384.382 214.968,386.001 214.255,389.181L210.995,388.109C211.514,385.966 212.434,384.28 213.756,383.051C215.078,381.822 216.805,381.18 218.937,381.128C220.058,381.1 221.074,381.273 221.985,381.645C222.896,382.018 223.678,382.526 224.332,383.168C224.986,383.811 225.499,384.561 225.873,385.419C226.246,386.277 226.444,387.189 226.468,388.154C226.489,388.988 226.393,389.775 226.18,390.516C225.968,391.257 225.645,392 225.213,392.747C224.781,393.493 224.25,394.252 223.62,395.025C222.991,395.799 222.269,396.645 221.456,397.565L217.38,402.112L227.072,401.873L227.154,405.164L210.901,405.566ZM245.939,402.872C246.664,402.901 247.322,402.823 247.912,402.638C248.503,402.453 249.008,402.188 249.429,401.842C249.85,401.497 250.181,401.076 250.421,400.58C250.661,400.085 250.792,399.552 250.815,398.982C250.84,398.346 250.743,397.759 250.522,397.223C250.302,396.687 249.985,396.224 249.572,395.834C249.158,395.444 248.676,395.129 248.124,394.887C247.573,394.645 246.968,394.511 246.309,394.485C245.628,394.457 244.992,394.542 244.401,394.738C243.81,394.934 243.293,395.21 242.849,395.565C242.406,395.921 242.053,396.357 241.79,396.874C241.527,397.391 241.384,397.945 241.36,398.537C241.338,399.085 241.422,399.611 241.61,400.112C241.799,400.614 242.089,401.065 242.48,401.465C242.871,401.865 243.359,402.192 243.943,402.446C244.527,402.7 245.192,402.842 245.939,402.872ZM257.061,387.528C257.131,386.631 257.352,385.85 257.723,385.185C258.095,384.52 258.557,383.962 259.111,383.509C259.664,383.057 260.285,382.731 260.973,382.531C261.661,382.331 262.356,382.259 263.058,382.313C263.803,382.371 264.499,382.563 265.146,382.888C265.794,383.213 266.351,383.636 266.817,384.157C267.284,384.678 267.639,385.289 267.882,385.99C268.125,386.691 268.216,387.436 268.155,388.224C268.092,389.033 267.88,389.765 267.52,390.42C267.161,391.075 266.71,391.628 266.167,392.082C265.625,392.535 265.009,392.872 264.319,393.094C263.629,393.316 262.922,393.399 262.199,393.342C261.41,393.281 260.692,393.077 260.047,392.73C259.401,392.382 258.846,391.943 258.38,391.411C257.914,390.88 257.564,390.275 257.33,389.596C257.096,388.918 257.007,388.228 257.061,387.528ZM258.973,387.61C258.936,388.092 258.999,388.559 259.162,389.012C259.325,389.465 259.558,389.874 259.86,390.238C260.163,390.603 260.52,390.906 260.931,391.147C261.342,391.388 261.778,391.526 262.238,391.562C262.808,391.606 263.331,391.542 263.808,391.37C264.284,391.198 264.695,390.949 265.04,390.624C265.385,390.298 265.663,389.924 265.872,389.5C266.082,389.075 266.205,388.623 266.242,388.141C266.283,387.616 266.229,387.116 266.078,386.642C265.927,386.168 265.706,385.75 265.415,385.386C265.124,385.022 264.761,384.724 264.327,384.492C263.893,384.26 263.413,384.124 262.887,384.083C262.404,384.046 261.937,384.103 261.484,384.255C261.031,384.407 260.628,384.634 260.273,384.937C259.919,385.24 259.625,385.619 259.391,386.074C259.157,386.529 259.018,387.041 258.973,387.61ZM246.371,391.291C247.338,391.33 248.179,391.05 248.897,390.453C249.614,389.856 249.992,389.063 250.032,388.077C250.069,387.155 249.781,386.375 249.169,385.735C248.556,385.096 247.69,384.754 246.569,384.709C245.471,384.665 244.607,384.938 243.979,385.528C243.35,386.118 243.017,386.873 242.98,387.794C242.94,388.781 243.254,389.601 243.921,390.254C244.588,390.907 245.404,391.252 246.371,391.291Z"/>
    <path id="Datum" d="M541.399,598.299L536.902,598.299L542.898,616.257L528.657,616.257L528.657,620.747L558.638,620.747L558.638,616.257L544.397,616.257L550.394,598.299L545.896,598.299L545.896,462.676L541.399,462.676L541.399,598.299ZM484.654,440.656L487.853,439.108C488.292,440.228 488.908,441.133 489.7,441.825C490.491,442.516 491.557,442.862 492.898,442.862C493.624,442.862 494.262,442.747 494.811,442.516C495.361,442.286 495.828,441.973 496.213,441.578C496.598,441.183 496.883,440.733 497.07,440.228C497.257,439.723 497.351,439.196 497.351,438.648C497.351,437.287 496.823,436.184 495.768,435.339C494.712,434.494 493.184,434.071 491.184,434.071L491.184,431.042C492.833,430.932 494.036,430.559 494.795,429.923C495.553,429.286 495.933,428.474 495.933,427.486C495.933,426.652 495.641,425.95 495.059,425.379C494.476,424.808 493.679,424.523 492.668,424.523C491.766,424.523 490.98,424.786 490.31,425.313C489.639,425.84 489.084,426.586 488.644,427.552L485.511,426.136C486.171,424.6 487.127,423.398 488.38,422.531C489.634,421.664 491.107,421.231 492.8,421.231C493.833,421.231 494.762,421.395 495.586,421.725C496.411,422.054 497.114,422.493 497.697,423.042C498.28,423.59 498.725,424.232 499.033,424.968C499.34,425.703 499.494,426.488 499.494,427.322C499.494,428.441 499.203,429.429 498.62,430.285C498.038,431.141 497.197,431.821 496.097,432.326C497.614,432.831 498.769,433.616 499.56,434.68C500.352,435.745 500.747,437.034 500.747,438.549C500.747,439.558 500.577,440.513 500.236,441.413C499.896,442.313 499.39,443.109 498.719,443.8C498.049,444.492 497.213,445.04 496.213,445.446C495.212,445.852 494.042,446.055 492.701,446.055C490.678,446.055 489.001,445.551 487.671,444.541C486.341,443.531 485.335,442.236 484.654,440.656ZM541.213,433.709C541.213,431.799 541.378,430.076 541.707,428.54C542.037,427.003 542.537,425.692 543.208,424.605C543.878,423.519 544.73,422.685 545.764,422.103C546.797,421.522 548.006,421.231 549.391,421.231C552.052,421.231 554.091,422.262 555.509,424.326C556.927,426.389 557.636,429.517 557.636,433.709C557.636,437.791 556.938,440.864 555.542,442.928C554.146,444.991 552.118,446.023 549.457,446.023C547.962,446.023 546.693,445.732 545.648,445.15C544.604,444.568 543.752,443.745 543.092,442.681C542.433,441.616 541.955,440.321 541.658,438.796C541.361,437.27 541.213,435.575 541.213,433.709ZM568.387,433.709C568.387,431.799 568.552,430.076 568.882,428.54C569.212,427.003 569.712,425.692 570.383,424.605C571.053,423.519 571.905,422.685 572.938,422.103C573.972,421.522 575.181,421.231 576.566,421.231C579.226,421.231 581.266,422.262 582.684,424.326C584.102,426.389 584.811,429.517 584.811,433.709C584.811,437.791 584.113,440.864 582.717,442.928C581.321,444.991 579.292,446.023 576.632,446.023C575.137,446.023 573.867,445.732 572.823,445.15C571.779,444.568 570.927,443.745 570.267,442.681C569.608,441.616 569.129,440.321 568.833,438.796C568.536,437.27 568.387,435.575 568.387,433.709ZM560.736,443.652C560.736,443.015 560.962,442.478 561.412,442.039C561.863,441.6 562.396,441.38 563.012,441.38C563.649,441.38 564.188,441.6 564.628,442.039C565.067,442.478 565.287,443.015 565.287,443.652C565.287,444.289 565.067,444.826 564.628,445.265C564.188,445.704 563.649,445.924 563.012,445.924C562.374,445.924 561.836,445.699 561.396,445.249C560.956,444.799 560.736,444.267 560.736,443.652ZM586.625,445.463L586.658,444.245L594.804,435.783C596.189,434.334 597.271,433.034 598.052,431.882C598.832,430.729 599.223,429.593 599.223,428.474C599.223,427.903 599.118,427.377 598.909,426.894C598.701,426.411 598.415,425.983 598.052,425.61C597.689,425.236 597.255,424.946 596.749,424.737C596.244,424.529 595.705,424.424 595.133,424.424C592.759,424.424 591.176,426.005 590.384,429.165L587.152,428.013C587.724,425.884 588.686,424.221 590.038,423.025C591.39,421.829 593.133,421.231 595.265,421.231C596.387,421.231 597.398,421.428 598.299,421.823C599.201,422.218 599.97,422.745 600.608,423.404C601.245,424.062 601.74,424.825 602.092,425.692C602.444,426.559 602.62,427.475 602.62,428.441C602.62,429.275 602.504,430.06 602.273,430.795C602.042,431.53 601.702,432.266 601.251,433.001C600.8,433.736 600.251,434.483 599.602,435.24C598.953,435.997 598.211,436.826 597.376,437.726L593.188,442.17L602.883,442.17L602.883,445.463L586.625,445.463ZM529.208,442.137L529.208,445.265L513.016,445.265L513.016,442.137L529.208,442.137ZM544.708,433.709C544.708,436.584 545.082,438.823 545.83,440.425C546.577,442.028 547.786,442.829 549.457,442.829C550.93,442.829 552.09,442.077 552.937,440.574C553.783,439.07 554.206,436.782 554.206,433.709C554.206,430.592 553.789,428.282 552.953,426.778C552.118,425.275 550.952,424.523 549.457,424.523C548.6,424.523 547.869,424.737 547.264,425.165C546.66,425.593 546.165,426.202 545.78,426.992C545.396,427.783 545.121,428.743 544.956,429.873C544.791,431.004 544.708,432.282 544.708,433.709ZM571.883,433.709C571.883,436.584 572.257,438.823 573.004,440.425C573.752,442.028 574.961,442.829 576.632,442.829C578.105,442.829 579.265,442.077 580.111,440.574C580.958,439.07 581.381,436.782 581.381,433.709C581.381,430.592 580.963,428.282 580.128,426.778C579.292,425.275 578.127,424.523 576.632,424.523C575.775,424.523 575.044,424.737 574.439,425.165C573.834,425.593 573.34,426.202 572.955,426.992C572.57,427.783 572.295,428.743 572.13,429.873C571.966,431.004 571.883,432.282 571.883,433.709ZM519.545,429.396L519.545,422.91L522.744,422.91L522.744,429.396L529.208,429.396L529.208,432.524L522.744,432.524L522.744,439.01L519.545,439.01L519.545,432.524L513.016,432.524L513.016,429.396L519.545,429.396ZM541.375,149.386L541.375,163.999L536.322,172.914L528.633,172.914L528.633,177.404L542.858,177.404L536.902,195.243L541.399,195.243L541.399,405.807L545.896,405.807L545.896,195.243L550.394,195.243L544.437,177.404L558.614,177.404L558.614,172.914L550.925,172.914L545.872,163.999L545.872,149.386L564.1,149.386C565.342,149.386 566.349,148.381 566.349,147.141L566.349,102.245C566.349,101.005 565.342,100 564.1,100L523.437,100C522.195,100 521.188,101.005 521.188,102.245L521.188,147.141C521.188,148.381 522.195,149.386 523.437,149.386L541.375,149.386ZM561.852,104.49L561.852,144.896C561.852,144.896 525.685,144.896 525.685,144.896C525.685,144.896 525.685,104.49 525.685,104.49L561.852,104.49ZM542.465,112.89L545.103,112.89L555.129,136.529L551.501,136.529L548.896,130.274L538.672,130.274L536.034,136.529L532.406,136.529L542.465,112.89ZM540.09,126.915L547.477,126.915L543.784,118.059L540.09,126.915Z"/>
    <path id="Symmetry" d="M424.483,547.202L435.701,547.202L435.701,542.712L423.132,542.712L428.98,525.197L424.483,525.197L424.483,399.073L424.745,399.073L424.745,394.583L424.483,394.583L424.483,267.921L428.98,267.921L422.907,249.733L435.725,249.733L435.725,245.243L408.743,245.243L408.743,249.733L421.561,249.733L415.488,267.921L419.985,267.921L419.985,525.197L415.488,525.197L421.336,542.712L408.718,542.712L408.718,547.202L419.985,547.202L419.985,650.614L256.516,650.614C255.274,650.614 254.267,651.619 254.267,652.859L254.267,697.755C254.267,698.995 255.274,700 256.516,700L422.234,700C423.476,700 424.483,698.995 424.483,697.755L424.483,547.202ZM299.239,655.104L299.239,695.51L258.765,695.51C258.765,695.51 258.765,655.104 258.765,655.104L299.239,655.104ZM303.736,695.51L379.288,695.51L379.288,655.104L303.736,655.104L303.736,695.51ZM419.985,655.104L383.785,655.104L383.785,695.51L419.985,695.51L419.985,655.104ZM310.482,675.389C310.482,673.48 310.647,671.757 310.976,670.22C311.306,668.684 311.806,667.372 312.477,666.286C313.147,665.199 313.999,664.365 315.033,663.784C316.066,663.202 317.275,662.911 318.66,662.911C321.321,662.911 323.36,663.943 324.778,666.006C326.196,668.069 326.905,671.197 326.905,675.389C326.905,679.472 326.207,682.545 324.811,684.608C323.415,686.671 321.387,687.703 318.726,687.703C317.231,687.703 315.962,687.412 314.917,686.83C313.873,686.249 313.021,685.426 312.361,684.361C311.702,683.297 311.224,682.002 310.927,680.476C310.63,678.951 310.482,677.255 310.482,675.389ZM337.656,675.389C337.656,673.48 337.821,671.757 338.151,670.22C338.481,668.684 338.981,667.372 339.652,666.286C340.322,665.199 341.174,664.365 342.207,663.784C343.241,663.202 344.45,662.911 345.835,662.911C348.495,662.911 350.535,663.943 351.953,666.006C353.371,668.069 354.08,671.197 354.08,675.389C354.08,679.472 353.382,682.545 351.986,684.608C350.59,686.671 348.561,687.703 345.901,687.703C344.406,687.703 343.136,687.412 342.092,686.83C341.048,686.249 340.196,685.426 339.536,684.361C338.877,683.297 338.398,682.002 338.102,680.476C337.805,678.951 337.656,677.255 337.656,675.389ZM330.005,685.332C330.005,684.696 330.231,684.158 330.681,683.719C331.132,683.28 331.665,683.061 332.281,683.061C332.918,683.061 333.457,683.28 333.897,683.719C334.336,684.158 334.556,684.696 334.556,685.332C334.556,685.969 334.336,686.507 333.897,686.946C333.457,687.385 332.918,687.604 332.281,687.604C331.643,687.604 331.104,687.379 330.665,686.929C330.225,686.479 330.005,685.947 330.005,685.332ZM367.469,662.911L370.075,662.911L370.075,678.715L372.548,678.715L372.548,681.974L370.075,681.974L370.075,687.143L366.645,687.143L366.645,681.974L355.894,681.974L355.894,679.702L367.469,662.911ZM400.598,663.504L403.236,663.504L413.262,687.143L409.634,687.143L407.029,680.888L396.806,680.888L394.167,687.143L390.54,687.143L400.598,663.504ZM271.343,686.531L284.835,686.531L284.835,682.041L271.343,682.041L271.343,686.531ZM313.977,675.389C313.977,678.265 314.351,680.503 315.099,682.106C315.846,683.708 317.055,684.509 318.726,684.509C320.199,684.509 321.359,683.757 322.206,682.254C323.052,680.75 323.475,678.462 323.475,675.389C323.475,672.272 323.058,669.962 322.222,668.459C321.387,666.955 320.221,666.203 318.726,666.203C317.869,666.203 317.138,666.417 316.533,666.845C315.929,667.273 315.434,667.883 315.049,668.673C314.664,669.463 314.39,670.423 314.225,671.554C314.06,672.684 313.977,673.963 313.977,675.389ZM341.152,675.389C341.152,678.265 341.526,680.503 342.273,682.106C343.021,683.708 344.23,684.509 345.901,684.509C347.374,684.509 348.534,683.757 349.38,682.254C350.227,680.75 350.65,678.462 350.65,675.389C350.65,672.272 350.232,669.962 349.397,668.459C348.561,666.955 347.396,666.203 345.901,666.203C345.044,666.203 344.313,666.417 343.708,666.845C343.103,667.273 342.609,667.883 342.224,668.673C341.839,669.463 341.564,670.423 341.399,671.554C341.235,672.684 341.152,673.963 341.152,675.389ZM360.445,678.715L366.645,678.715L366.645,669.858L360.445,678.715ZM264.667,677.552L291.65,677.552L291.65,673.062L264.667,673.062L264.667,677.552ZM398.224,677.529L405.611,677.529L401.917,668.673L398.224,677.529ZM271.343,668.572L284.835,668.572L284.835,664.083L271.343,664.083L271.343,668.572ZM451.577,542.741L451.577,534.404L447.08,534.404L447.08,542.741L438.729,542.741L438.729,547.231L447.08,547.231L447.08,555.568L451.577,555.568L451.577,547.231L459.929,547.231L459.929,542.741L451.577,542.741ZM492.202,399.073L510.19,399.073L510.19,394.583L492.202,394.583L492.202,399.073ZM514.687,399.073L519.184,399.073L519.184,394.583L514.687,394.583L514.687,399.073ZM429.242,399.073L447.23,399.073L447.23,394.583L429.242,394.583L429.242,399.073ZM460.722,399.073L478.71,399.073L478.71,394.583L460.722,394.583L460.722,399.073ZM523.682,399.073L531.776,399.073L531.776,394.583L523.682,394.583L523.682,399.073ZM366.282,399.073L384.27,399.073L384.27,394.583L366.282,394.583L366.282,399.073ZM388.767,399.073L393.265,399.073L393.265,394.583L388.767,394.583L388.767,399.073ZM397.762,399.073L415.75,399.073L415.75,394.583L397.762,394.583L397.762,399.073ZM451.727,399.073L456.225,399.073L456.225,394.583L451.727,394.583L451.727,399.073ZM483.207,399.073L487.705,399.073L487.705,394.583L483.207,394.583L483.207,399.073ZM451.577,245.228L451.577,236.89L447.08,236.89L447.08,245.228L438.729,245.228L438.729,249.717L447.08,249.717L447.08,258.055L451.577,258.055L451.577,249.717L459.929,249.717L459.929,245.228L451.577,245.228Z"/>
    <path id="Circularity" d="M768.051,382.803L768.051,362.697C768.051,361.457 769.058,360.452 770.299,360.452L876.432,360.452C877.674,360.452 878.68,361.457 878.68,362.697L878.68,407.593C878.68,408.833 877.674,409.838 876.432,409.838L770.299,409.838C769.058,409.838 768.051,408.833 768.051,407.593L768.051,387.293L727.106,387.293L773.2,460.299L777.005,457.905L782.089,478.588L765.591,465.087L769.396,462.693L721.128,386.245C720.692,385.554 720.666,384.68 721.062,383.964C721.457,383.248 722.212,382.803 723.03,382.803L768.051,382.803ZM813.022,364.942L813.022,405.348L772.548,405.348C772.548,405.348 772.548,364.941 772.548,364.941L813.022,364.942ZM817.519,364.942L874.183,364.942L874.183,405.348L817.519,405.348L817.519,364.942ZM792.785,369.431C784.098,369.431 777.045,376.472 777.045,385.145C777.045,393.818 784.098,400.859 792.785,400.859C801.472,400.859 808.525,393.818 808.525,385.145C808.525,376.472 801.472,369.431 792.785,369.431ZM851.572,392.306L854.771,390.923C855.21,391.955 855.793,392.783 856.518,393.409C857.244,394.034 858.255,394.347 859.553,394.347C860.168,394.347 860.74,394.232 861.267,394.001C861.795,393.771 862.257,393.447 862.653,393.03C863.048,392.613 863.356,392.103 863.576,391.499C863.796,390.896 863.906,390.232 863.906,389.507C863.906,388.059 863.483,386.923 862.636,386.1C861.79,385.277 860.707,384.865 859.388,384.865C858.552,384.865 857.854,384.98 857.293,385.211C856.733,385.441 856.167,385.743 855.595,386.116L853.418,385.754L855.958,373.342L866.907,373.342L866.907,376.601L858.596,376.601L857.475,382.034C857.783,381.902 858.14,381.792 858.547,381.704C858.953,381.617 859.476,381.573 860.113,381.573C861.168,381.573 862.147,381.765 863.048,382.149C863.95,382.533 864.73,383.071 865.39,383.762C866.049,384.453 866.561,385.288 866.923,386.264C867.286,387.241 867.467,388.322 867.467,389.507C867.467,390.715 867.264,391.812 866.857,392.8C866.451,393.787 865.89,394.633 865.175,395.335C864.461,396.037 863.62,396.581 862.653,396.965C861.685,397.349 860.63,397.541 859.487,397.541C858.431,397.541 857.486,397.404 856.65,397.129C855.815,396.855 855.067,396.482 854.408,396.01C853.748,395.538 853.188,394.984 852.726,394.347C852.264,393.711 851.879,393.03 851.572,392.306ZM824.265,385.227C824.265,383.318 824.43,381.595 824.76,380.058C825.089,378.522 825.59,377.21 826.26,376.124C826.931,375.037 827.783,374.203 828.816,373.621C829.849,373.04 831.059,372.749 832.444,372.749C835.104,372.749 837.143,373.781 838.561,375.844C839.979,377.907 840.689,381.035 840.689,385.227C840.689,389.31 839.99,392.383 838.594,394.446C837.198,396.509 835.17,397.541 832.51,397.541C831.015,397.541 829.745,397.25 828.701,396.668C827.656,396.087 826.804,395.264 826.145,394.199C825.485,393.134 825.007,391.839 824.71,390.314C824.413,388.788 824.265,387.093 824.265,385.227ZM843.789,395.17C843.789,394.534 844.014,393.996 844.465,393.557C844.915,393.118 845.449,392.899 846.064,392.899C846.702,392.899 847.24,393.118 847.68,393.557C848.12,393.996 848.34,394.534 848.34,395.17C848.34,395.807 848.12,396.345 847.68,396.784C847.24,397.223 846.702,397.442 846.064,397.442C845.427,397.442 844.888,397.217 844.448,396.767C844.008,396.317 843.789,395.785 843.789,395.17ZM792.785,373.921C798.99,373.921 804.028,378.95 804.028,385.145C804.028,391.34 798.99,396.369 792.785,396.369C786.58,396.369 781.542,391.34 781.542,385.145C781.542,378.95 786.58,373.921 792.785,373.921ZM827.761,385.227C827.761,388.103 828.135,390.341 828.882,391.944C829.63,393.546 830.839,394.347 832.51,394.347C833.983,394.347 835.143,393.595 835.989,392.092C836.835,390.588 837.259,388.3 837.259,385.227C837.259,382.11 836.841,379.8 836.006,378.297C835.17,376.793 834.005,376.041 832.51,376.041C831.652,376.041 830.921,376.255 830.317,376.683C829.712,377.111 829.217,377.721 828.833,378.511C828.448,379.301 828.173,380.261 828.008,381.392C827.843,382.522 827.761,383.8 827.761,385.227Z"/>
</svg>
